# xmcd
#
# Track frame offsets:
#  150
#  10202
#  20967
#  33136
#  47741
#  63806
#  78203
#  94174
#  112441
#  124182
#  136917
#  150061
#  162732
#  176595
#  191587
#
# Disc length: 2687 seconds
#
# Revision: 0
# Processed by: cddbd v1.5.2PL0 Copyright (c) Steve Scherf et al.
# Submitted via: Collectorz.com_Music_Collector 6.9
#
DISCID=c10a7d0f
DTITLE=Various Artist - Country Cool Vol.2 - Stars on Stage CD1
DYEAR=1900
DGENRE=
TTITLE0=Jim Reeves - He'll have to go
TTITLE1=Charley Pride - Oklahoma morning
TTITLE2=Loretta Lynn - Me and Bobby McGee
TTITLE3=Johnny Cash - I walk the line
TTITLE4=Willie Nelson - Always on my mind
TTITLE5=Jerry Lee lewis - What's made Milwalkee famous
TTITLE6=Brenda Lee - Johnny one time
TTITLE7=Tom T Hall - I like beer
TTITLE8=Jim Reeves - Mexican Joe
TTITLE9=Charley Pride - Crystal Chandeliers
TTITLE10=Loretta Lynn - Let your love flow
TTITLE11=Johnny Cash - Ring of fire
TTITLE12=Willie Nelson - Blue eyes crying in the rain
TTITLE13=Jerry Lee lewis - Cold cold heart
TTITLE14=Brenda Lee - I'm sorry
EXTD=
EXTT0=
EXTT1=
EXTT2=
EXTT3=
EXTT4=
EXTT5=
EXTT6=
EXTT7=
EXTT8=
EXTT9=
EXTT10=
EXTT11=
EXTT12=
EXTT13=
EXTT14=
PLAYORDER=
